<?xml version="1.0" encoding="UTF-8"?>
<svg id="FINAL" xmlns="http://www.w3.org/2000/svg" viewBox="0 0 519.75 191.7">
  <defs>
    <style>
      .cls-1 {
        fill: #494e9b;
      }

      .cls-2 {
        fill: #00bd70;
      }

      .cls-3 {
        fill: #37ad6f;
      }
    </style>
  </defs>
  <g>
    <path class="cls-2" d="m208.18,140.29h-14.23l-35.43-40.54v40.54h-18.37v-73.9h14.02l35.65,41.62v-41.62h18.37v73.9Z"/>
    <path class="cls-2" d="m240.35,127.58l-4.89,12.72h-19.56l31.41-74.33h17.5l31.3,74.33h-19.45l-5-12.72h-31.3Zm15.65-40.21l-9.56,24.56h19.13l-9.56-24.56Z"/>
    <path class="cls-2" d="m383.8,140.29h-18.37v-37.06l-16.41,25.32v.11h-10.22v-.11l-16.52-25.54.11,37.28h-18.37v-73.9h13.59l26.3,39.45,26.19-39.45h13.69v73.9Z"/>
    <path class="cls-2" d="m473.46,103.34c0,21.52-16.84,38.47-39.23,38.47s-39.12-16.95-39.12-38.47,16.84-38.47,39.12-38.47,39.23,16.95,39.23,38.47Zm-18.69,0c0-11.63-8.59-21.41-20.54-21.41s-20.54,9.78-20.54,21.41,8.58,21.41,20.54,21.41,20.54-9.78,20.54-21.41Z"/>
  </g>
  <polygon class="cls-2" points="68.55 140.3 92.73 140.3 139.07 95.64 115.23 95.64 68.55 140.3"/>
  <polygon class="cls-1" points="126.85 88.73 151.03 88.73 197.37 44.06 173.53 44.06 126.85 88.73"/>
  <path class="cls-2" d="m53.21,98.24h31.73v15.98h-31.73v26.08h-18.37v-73.91h55.1v16.19h-36.73v15.65Z"/>
  <path class="cls-3" d="m473.39,70.87v-.03c0-3.29,2.67-6.04,6.05-6.04s6.02,2.72,6.02,6v.03c0,3.29-2.67,6.04-6.05,6.04s-6.02-2.72-6.02-6Zm11.53-.03v-.03c0-3.02-2.35-5.49-5.47-5.49s-5.5,2.5-5.5,5.52v.03c0,3.02,2.35,5.49,5.47,5.49s5.5-2.5,5.5-5.52Zm-7.86-3.27h2.77c.78,0,1.43.25,1.83.65.3.28.5.7.5,1.2v.03c0,1-.67,1.6-1.6,1.82l1.92,2.49h-1.13l-1.78-2.34h-1.58v2.34h-.92v-6.19Zm2.69,3.04c.87,0,1.47-.4,1.47-1.1v-.03c0-.65-.53-1.07-1.42-1.07h-1.82v2.2h1.77Z"/>
</svg>